<svg width="48" height="48" fill="none" xmlns="http://www.w3.org/2000/svg"><path d="M11 13h26c4.613 0 7.872 3.652 7.958 8.265.026 1.375.042 2.95.042 4.735 0 4.48-.102 7.637-.2 9.642-.081 1.653-1.247 2.99-2.895 3.148-1.199.115-2.819.21-4.905.21H11" stroke="#000" stroke-width="3" stroke-linejoin="round"/><path d="M21.107 39c.075 1.602.175 3.105.252 4.151.063.87.692 1.592 1.557 1.704.604.078 1.339.145 2.084.145.745 0 1.48-.067 2.084-.145.865-.112 1.494-.834 1.558-1.704.076-1.047.176-2.55.25-4.151" stroke="#000" stroke-width="3" stroke-linecap="round" stroke-linejoin="round"/><path d="M11 13c-4.613 0-7.872 3.652-7.958 8.265A254.36 254.36 0 003 26c0 4.48.102 7.637.2 9.642.081 1.653 1.247 2.99 2.895 3.148 1.199.115 2.819.21 4.905.21 2.086 0 3.706-.095 4.905-.21 1.648-.159 2.814-1.495 2.895-3.148.098-2.005.2-5.162.2-9.642 0-1.785-.016-3.36-.042-4.735C18.872 16.652 15.613 13 11 13z" stroke="#000" stroke-width="3" stroke-linejoin="round"/><path d="M26 3h3.5c.345 0 .66.003.947.007C31.882 3.029 33 4.065 33 5.5c0 1.435-1.118 2.47-2.553 2.493-.287.004-.602.007-.947.007H26M14 22H8m18 8V3" stroke="#000" stroke-width="3" stroke-linecap="round" stroke-linejoin="round"/></svg>