<svg width="48" height="48" fill="none" xmlns="http://www.w3.org/2000/svg"><path d="M37.5 33.26l.58.032c1.215.068 2.301.733 2.848 1.82a33.521 33.521 0 012.423 6.38c.44 1.657-.775 3.19-2.487 3.26C37.998 44.87 32.824 45 24 45c-8.824 0-13.998-.13-16.864-.247-1.712-.07-2.926-1.605-2.487-3.26a33.523 33.523 0 012.423-6.381c.547-1.087 1.633-1.752 2.848-1.82l.58-.031" stroke="#000" stroke-width="3" stroke-linecap="round" stroke-linejoin="round"/><path d="M39 18.07c0 10.63-10.748 18.26-14.048 20.353a1.766 1.766 0 01-1.904 0C19.748 36.331 9 28.7 9 18.07 9 9.747 15.716 3 24 3c8.284 0 15 6.747 15 15.07z" stroke="#000" stroke-width="3" stroke-linecap="round" stroke-linejoin="round"/><path d="M30 18a6 6 0 11-12 0 6 6 0 0112 0z" stroke="#000" stroke-width="3" stroke-linecap="round" stroke-linejoin="round"/></svg>