<svg width="19" height="19" fill="none" xmlns="http://www.w3.org/2000/svg"><g clip-path="url(#clip0_10_541)"><path d="M16.15.95H2.85c-1.045 0-1.9.855-1.9 1.9v13.3c0 1.046.855 1.9 1.9 1.9H9.5V11.4H7.6V9.049h1.9V7.1c0-2.056 1.151-3.5 3.578-3.5l1.713.002v2.475h-1.138c-.944 0-1.303.709-1.303 1.366V9.05h2.44l-.54 2.35h-1.9v6.65h3.8c1.045 0 1.9-.854 1.9-1.9V2.85c0-1.045-.855-1.9-1.9-1.9z" fill="#344233"/></g><defs><clipPath id="clip0_10_541"><path fill="#fff" d="M0 0h19v19H0z"/></clipPath></defs></svg>