<svg width="12" height="12" fill="none" xmlns="http://www.w3.org/2000/svg"><path d="M.928 2.367c.015.226.085.531.21.914.125.382.305.808.54 1.277.242.469.538.957.89 1.465.351.507.761.995 1.23 1.464.461.469.934.91 1.418 1.324.476.414.922.777 1.336 1.09.421.312.792.562 1.113.75.32.187.55.293.691.316.281.031.469.043.562.035l.153-.011c.039.007.156-.032.351-.118.188-.086.395-.199.621-.34.227-.148.442-.32.645-.515s.336-.398.398-.61c-.25-.116-.62-.304-1.113-.562a26.595 26.595 0 00-1.101-.562L7.559 9.292l-1.312-.926c-.133-.07-.406-.29-.82-.656a14.959 14.959 0 01-1.113-1.113 14.825 14.825 0 01-.961-1.16c-.29-.399-.469-.664-.54-.797l-.257-.516.75-.949-.984-2.144a3.39 3.39 0 00-.984.563c-.29.242-.426.5-.41.773zm7.662 9.631c-.304 0-.671-.11-1.101-.328a11.95 11.95 0 01-1.37-.879c-.493-.367-1-.78-1.524-1.242-.516-.46-1.023-.93-1.523-1.406a9.867 9.867 0 01-1.3-1.511 12.177 12.177 0 01-.95-1.57 10.207 10.207 0 01-.586-1.465A5.747 5.747 0 01.002 2.45a1.353 1.353 0 01.246-.832c.172-.281.394-.531.668-.75.281-.226.586-.418.914-.574.328-.156.64-.254.937-.293l1.653 3.35-.832.96c.086.141.32.446.703.915.383.468.766.898 1.149 1.289.382.382.78.75 1.195 1.101.421.344.703.555.843.633l1.184-.88.375.165c.25.11.543.238.878.387a32.234 32.234 0 011.77.808l.093.082a.658.658 0 01.164.293c.04.14.059.242.059.305v.082c-.14.601-.434 1.07-.879 1.406a7.162 7.162 0 01-1.441.855l-.152.059a3.226 3.226 0 01-.399.117c-.171.047-.304.07-.398.07h-.14z" fill="#4C505B"/></svg>