<svg version="1.0" xmlns="http://www.w3.org/2000/svg" viewBox="75 38.7 300 91.3"><switch><g><path d="M133.5 39.4v16.7c-.1.1-.1.2-.2.2s-.2.1-.2.1H95.6v14.8c.7.5 1.6.2 2.5.2 4.3 0 8.7.1 12.9 0 18.2-.6 28.6 17.8 25.9 34-.8 5-2.8 9.9-6.3 13.7-2.9 3.3-6.2 6-10.4 7.7-7.2 3-15.2 3.6-23 2.8-3.9-.4-7.9-1.1-11.6-1.9-2-.5-3.9-.9-5.7-1.4-.5-.1-4.8-1.5-4.8-1.2v-19.8c0 .2 10 3.2 11 3.3 4.3.9 8.6 2.1 13 2.6 4.9.5 10.9-.2 14.4-4.1 3.4-3.8 4.2-9.7 1.9-14.2-1.5-2.8-4.2-4.9-7.3-6-3.3-1.2-6.8-1.5-10.2-1.4-2.7 0-5.4.5-8.2.9-4 .7-8.1 2-12.1 2.6V39.2c18.6.2 37.3.2 55.9.2zm241.6-.7v89.7c-2.9.6-78.4.7-90.1.2V38.7h90.1zm-44.7 6.9c-9 0-17.9.1-27 0-2.7 0-4.9.7-6.9 2.1-2.2 1.5-3.9 3.8-4.5 6.2-.6 2.5-.8 4.9-.8 7.5.1 15.7 0 31.3.1 47 0 4.3 1.3 8 4.6 11 2.2 2 4.7 3.2 7.6 3.2h53.1c1.2 0 2.3-.4 3.5-.6 2.7-.6 4.9-2.1 6.5-4.2 1.5-2.1 2.5-4.7 2.5-7.5 0-17.5-.1-34.9 0-52.4 0-1.5-.4-2.9-.8-4.1-1.8-4.6-5.4-8.3-11.3-8.2h-26.6zm-131.3 66.1H214v17.7h-47.5v-17.6h14.8V56.6h-14.1V39.8l31.9-.2v72.1zm38.1-55.1h-13.4V39.7H255v72c5 .4 10 0 15 .2v17.5h-47.5V112l.1-.1c.1 0 .2-.1.4-.1h14.3c-.1-18.4-.1-36.7-.1-55.2zM158 129.5l-17.7-.1v-17.6H158z"/><path d="M358.7 55.3v57h-56.9c-.5-2.8-.7-44.8-.2-57h57.1zm-52.4 28.5v17c0 .8.2 1.6.6 2.5 1.2 4 4.3 5 7.7 5 10.3.1 20.6.2 31 0 5.9-.1 9-3.3 9.1-9.1.2-10 .1-19.9 0-29.9 0-3.8-.7-5.3-2.9-7.3-1.5-1.3-2.9-2.1-4.9-2-10.8.1-21.6 0-32.4 0h-1.4c-3.6.2-6.7 3.5-6.7 7.2-.1 5.4-.1 10.9-.1 16.6z"/><path d="M332.3 98.1h-4.1V86h-11.6v-4.1h11.5V70.4h4.1c.1 1.8 0 3.6 0 5.5v6h9.3c3 0 3 0 3 3 0 .4-.1.6-.1 1.1h-12.1v12.1z"/></g></switch></svg>