<svg xmlns="http://www.w3.org/2000/svg" viewBox="0 0 300 80.6"><path d="M136.4 25H99.8L82.6 55.5h36.6l6.3-11.2-1.8-4.1 6.3-4.1 6.4-11.1zm-25.2 23.1H98.9l2.3-4.1h12.3l-2.3 4.1zm6.5-11.5h-12.3l2.3-4.1H120l-2.3 4.1zM141.5 25l-17.3 30.5h11.6l6.5-11.5h12.3l-6.5 11.5H160L177.2 25h-35.7zM159 36.6h-12.3l2.3-4.1h12.3l-2.3 4.1zm15.2 18.9h12.2l12.2-21.6h11l5-8.9h-34l-5 8.9h10.9zm57.6 0l4.2-7.4h-19l2.3-4.1H235l4.2-7.4h-15.7l2.3-4.2h19L249 25h-31.1l-17.2 30.5zm9.2-7.4l-4.2 7.4h36.4l10.7-18.9h-24.4l2.4-4.2h24.4l4.1-7.4h-36.3l-10.8 19h24.4l-2.4 4.1zM0 0l9.6 16.6h54.1l-7.1 12.5H16.8l9.6 16.6h20.8L36.9 63.9l9.6 16.7 19.8-34.9-4.9-8.3 14.4-8.5L92.2 0zm295.9 28.2h.4c.4 0 .8-.1.8-.5 0-.3-.2-.5-.7-.5h-.4v1zm0 1.9h-.8v-3.4c.3 0 .8-.1 1.3-.1.7 0 .9.1 1.2.3.2.1.4.4.4.7 0 .4-.3.7-.7.8.3.1.5.4.6.8.1.5.2.7.3.8h-.8c-.1-.1-.2-.4-.3-.8-.1-.4-.3-.5-.7-.5h-.4v1.4zm-2.1-1.7c0 1.5 1.2 2.8 2.7 2.8 1.5 0 2.6-1.2 2.6-2.7 0-1.5-1.1-2.8-2.7-2.8-1.4-.1-2.6 1.1-2.6 2.7m6.2 0c0 1.9-1.6 3.5-3.5 3.5-2 0-3.5-1.5-3.5-3.5 0-1.9 1.6-3.4 3.6-3.4 1.8-.1 3.4 1.4 3.4 3.4"/></svg>