<svg xmlns="http://www.w3.org/2000/svg" viewBox="0 0 300 65.1"><path d="M0 4.1c6.3.5 12.7.9 19 1.4-.1.7-.1 1.4-.2 2-.1.4 0 .5.4.7L34.5 16c7.5 3.8 15 7.7 22.6 11.5.4.2.5.4.5.8v25.6c0 .5-.2.7-.6.9-5.6 2.9-11.2 5.7-16.8 8.6-1 .5-2 1.1-3 1.6h-9.4s0-.1-.1-.1l-12.9-6.6c-.1-.1-.4 0-.6.1-.5.4-.9.8-1.3 1.2C9 55.3 5.2 50.9 1.4 46.3c5.9.4 11.7.9 17.5 1.3-.1.8-.2 1.5-.3 2.2.1.1.1.1.2.1l9.3 4.8c.2.1.5.1.8.1h6.5c.2 0 .5 0 .6-.1 1.8-.9 3.5-1.8 5.3-2.7l-.6-.3c-3.9-2-7.7-4-11.6-6-4.7-2.4-9.4-4.8-14.2-7.3-.4-.2-.7-.2-1 .2l-1.3 1.3C8.4 35 4.3 30.2.1 25.3c6.5.5 12.8.9 19.1 1.4-.1.4-.1.8-.1 1.2-.1 1.3-.1 1.3 1.1 2 8.5 4.4 17 8.7 25.6 13.1.7.4 1.5.7 2.2 1.1 0-.2.1-.2.1-.3v-8.9c0-.2-.2-.5-.4-.6-1-.6-2.1-1.1-3.1-1.6-6.5-3.3-12.9-6.6-19.4-9.9-3.5-1.8-7.1-3.6-10.6-5.5-.4-.2-.6-.2-.9.1-.4.4-.9.8-1.4 1.3-2-2.4-4-4.7-6-7.1C4.2 9.1 2.1 6.7 0 4.2v-.1zM143.6 0c.4.1.9.2 1.3.3 3.1.9 4.9 3 6.3 5.8 1 2 1.4 4.1 1.5 6.3.2 4.9.3 9.9.4 14.8v.3h-9V16.2c0-1.5-.1-3-.2-4.4 0-.5-.3-1-.7-1.4-.7-.6-1.8-.1-2 .9-.2 1.3-.4 2.6-.4 3.9v32.9c0 1.1.1 2.1.2 3.2 0 .2.1.4.1.6.2.7.7 1.1 1.3 1 .6 0 1.1-.4 1.2-1.1.2-.9.3-1.8.3-2.6.1-3.6.1-7.1.1-10.7v-.8h9.1v.7c-.1 4-.2 8-.4 12-.2 3.4-1.2 6.4-3.3 9.2-3.9 5.2-11.9 4.4-15.1-.9-1.3-2.2-2-4.5-2.1-6.9-.3-3.9-.5-7.7-.5-11.6-.1-7.4-.1-14.8 0-22.1 0-3.3.1-6.5 1.1-9.7.8-2.3 1.8-4.5 3.7-6.1 1.2-1 2.5-1.7 4-1.9.1 0 .2-.1.3-.1.9-.3 1.8-.3 2.8-.3zM243 61.6h-11.2c-1.3-20.2-2.7-40.3-4-60.4h8.8c.6 13.2 1.2 26.3 1.8 39.6.8-13.3 1.6-26.4 2.5-39.6h9.4c.6 13.7 1.3 27.4 1.9 40.7.8-13.3 1.6-27 2.4-40.7h9c-1.3 20.1-2.7 40.2-4 60.4H249c-.6 0-.7-.2-.8-.7-.3-3.8-2.4-27.2-2.7-30.2-.9 10.3-1.7 20.6-2.5 30.9zM202.5 1.2v60.4h-9V36.2h-2.8v25.4h-9V1.2h9v21.5h2.8V1.2h9zM80.5 29c.4.2.7.4 1 .5 2.2 1.2 3.3 3.2 3.6 5.6.3 1.9.5 3.8.5 5.6.1 3.4.1 6.7 0 10.1-.1 1.9-.3 3.8-.7 5.7-.7 3.3-2.5 4.8-5.9 5-4.7.2-9.3.1-14 .2-.1 0-.2 0-.3-.1V1.1h9.8c1.1 0 2.2.1 3.3.3 2.9.4 4.7 2.2 5.8 4.7.8 1.9 1.2 3.8 1.4 5.9.2 2.8.2 5.5.3 8.3 0 1.3-.2 2.5-.4 3.8-.3 2.2-1.6 3.7-3.6 4.6-.4.1-.5.2-.8.3zm-6.8 22.2c1.5.2 2.5-.5 2.8-1.9.1-.8.2-1.5.2-2.3v-7.2c0-1.1 0-2.2-.1-3.2-.1-1.6-1.2-2.4-2.9-2.1v16.7zm0-26.3c1.9.2 2.7-.2 2.8-2 .1-2.2.2-4.5.2-6.7 0-1-.1-2.1-.4-3.1-.3-1.3-1.3-1.8-2.6-1.5v13.3zm83.4-23.7h9v22.6h.1c1.4-7.5 2.7-15.1 4.1-22.6h8.4c-.3 1.5-.6 3-.8 4.4-1.3 7.1-2.6 14.2-4.1 21.3-.4 1.9.1 3.6.4 5.3.8 5 1.7 10 2.5 14.9.8 4.7 1.6 9.3 2.4 14v.5h-9.3c-1.2-8.3-2.4-16.5-3.6-24.8h-.1v24.8h-9V1.2zm109.1 0h9v22.4h.2c.1-.7.3-1.5.4-2.2 1.1-6 2.2-12.1 3.3-18.1l.3-1.8c0-.1.3-.3.4-.3h8.1l-1.2 6.3c-1.3 6.8-2.6 13.6-3.8 20.5-.2.9.1 1.9.3 2.9 1.2 7.1 2.4 14.1 3.5 21.2.5 3.1 1.1 6.2 1.6 9.4v.3h-8.7c-.5 0-.6-.1-.7-.6-.8-5.5-1.6-10.9-2.4-16.4-.4-2.5-.7-4.9-1.1-7.4 0-.1 0-.2-.2-.3v24.6h-9V1.2zM129.4 61.6h-9.2c-.2-3.6-.3-7.1-.5-10.7h-3c-.1 0-.2.3-.3.5-.2 3.2-.3 6.5-.4 9.7v.4h-9.4c1.5-20.1 3.1-40.3 4.6-60.4h13c1.7 20.2 3.4 40.3 5.2 60.5zm-11.3-45.5h-.1c-.5 8-1.1 16-1.6 24h3c-.5-8-.9-16-1.3-24zm86.8 45.5c1.6-20.2 3.1-40.3 4.6-60.4h13c1.7 20.1 3.5 40.2 5.2 60.4h-9.2c-.1-1.3-.1-2.5-.2-3.8-.1-2.1-.2-4.3-.3-6.4 0-.2-.2-.5-.3-.5h-3c-.1 1.6-.1 3.1-.2 4.6-.1 1.9-.2 3.8-.2 5.7 0 .4-.1.5-.5.5h-8.6s-.1-.1-.3-.1zM216.4 16h-.1c-.5 8-1.1 16-1.6 24h3c-.4-8-.8-16-1.3-24zM98.9 49.5h5.5v12.1H89.9V1.2h9v48.3zM57.5 1.2v22.3C43.1 16 28.8 8.7 14.3 1.2h43.2zm232.9 0h9.6c-.5 15.2-.9 30.3-1.4 45.5h-6.7c-.5-15.2-1-30.3-1.5-45.5zm.9 60.4V49.5h8.1v12.1h-8.1z"/></svg>