<svg xmlns="http://www.w3.org/2000/svg" viewBox="0 129.6 300 40.9"><path d="M72.3 149.9l-.2-.2H56.4l-.2.2v6.8l.2.2h15.7l.2-.2v-6.8zm-.2-4.8c.7 0 1.3.1 1.9.4.6.3 1.1.6 1.6 1.1s.8 1 1.1 1.6c.3.6.4 1.2.4 1.9v6.8c0 .7-.1 1.3-.4 1.9-.3.6-.6 1.1-1.1 1.5-.4.4-1 .8-1.6 1.1s-1.3.4-1.9.4H56.2v8.7h-4.7v-25.3l20.6-.1zm35.2 11.8l.3-.2v-6.8l-.3-.2H91.6l-.3.2v6.8l.3.2h15.7zm5-.1c0 .7-.1 1.3-.4 1.9-.3.6-.6 1.1-1.1 1.5s-1 .8-1.6 1.1-1.3.4-1.9.4H106l6.4 7.5v1.2h-5.1l-7.4-8.7h-8.4v8.7h-4.7V145h20.7c.7 0 1.3.1 1.9.4.6.3 1.1.6 1.6 1.1.4.4.8 1 1.1 1.6.3.6.4 1.2.4 1.9-.2-.1-.2 6.8-.2 6.8zm31.5 8.8l.2-.2v-15.6l-.2-.2h-15.7l-.3.2v15.6l.3.2h15.7zm0-20.7c.7 0 1.3.1 1.9.4.6.3 1.1.6 1.6 1s.8 1 1.1 1.5c.3.6.4 1.2.4 1.9v15.6c0 .7-.1 1.3-.4 1.9-.3.6-.6 1.1-1.1 1.5-.4.4-1 .8-1.6 1-.6.3-1.2.4-1.9.4h-15.7c-.7 0-1.3-.1-1.9-.4-.6-.3-1.1-.6-1.6-1-.4-.4-.8-.9-1.1-1.5-.3-.6-.4-1.2-.4-1.9v-15.6c0-.7.1-1.3.4-1.9.3-.6.6-1.1 1.1-1.5.4-.4 1-.8 1.6-1 .6-.3 1.3-.4 1.9-.4h15.7zm36.9 5l-.3-.2h-15.7l-.2.2v6.8l.2.2h15.7l.3-.2v-6.8zm-.2-4.8c.7 0 1.3.1 1.9.4.6.3 1.1.6 1.6 1.1.4.4.8 1 1.1 1.6s.4 1.2.4 1.9v6.8c0 .7-.1 1.3-.4 1.9-.3.6-.6 1.1-1.1 1.5-.4.4-1 .8-1.6 1.1s-1.3.4-1.9.4h-15.9v8.7h-4.7v-25.3l20.6-.1zm35.5 4.8l-.2-.2h-15.7l-.3.2v6.8l.3.2h15.7l.2-.2v-6.8zm-.2-4.8c.7 0 1.3.1 1.9.4.6.3 1.1.6 1.6 1.1.5.4.8 1 1.1 1.6s.4 1.2.4 1.9v6.8c0 .7-.1 1.3-.4 1.9-.3.6-.6 1.1-1.1 1.5-.4.4-1 .8-1.6 1.1s-1.3.4-1.9.4h-15.9v8.7h-4.7v-25.3l20.6-.1zm38.3 4.5h-18.8v5.7h15.2v4.6h-15.2v5.7h18.8v4.6h-23.6v-25.3h23.6v4.7zm32 7.3l.2-.2v-6.8l-.2-.2h-15.7l-.3.2v6.8l.3.2h15.7zm5-.1c0 .7-.1 1.3-.4 1.9-.3.6-.6 1.1-1.1 1.5s-1 .8-1.6 1.1-1.3.4-1.9.4h-1.4l6.4 7.5v1.2H286l-7.4-8.7h-8.4v8.7h-4.7V145h20.7c.7 0 1.3.1 1.9.4.6.3 1.1.6 1.6 1.1.5.4.8 1 1.1 1.6.3.6.4 1.2.4 1.9l-.1 6.8zm8.9-11.5h-1l-.6 1.9-.7-1.9h-1v3.1h.6V146l.8 2.4h.4l.8-2.4v2.4h.7v-3.1zm-4.4.5h.9v-.5H294v.5h.9v2.6h.7v-2.6zm-279.8-.7l5.1-15.5 5.1 15.5h15.7l-12.6 9.8 4.6 15.1-12.8-9L8 170l4.7-15.1L0 145.1h15.8z"/></svg>