<svg xmlns="http://www.w3.org/2000/svg" viewBox="0 99.1 300 101.7"><path fill="none" d="M222 170v-31.1h-6.3v55.8h6.3v-23.3zM91.5 148.3h2.8v10.8h-2.8zm192-12.8v-.1zm-91.9 3.5h-13.5l-7.5 6.8v41.9l8.4 7h12.7l7.6-6.8v-11.6l-6.1-.1v15.6h-16.3v-50.3h16.3v12.7h6v-8.4zm39.9 24.6l-.4 1-.8 2.2h-3.5l.1.1h3.2l.9 2 .5.9 10.3 24.9h6.7l-12.9-28-.3-.6-.6-1.4.6-1.5.3-.6 10.8-23.7h-5.7zm30-24.7l11.4 31.6.1.2.2.5v23.4h6.4V172l-.1-.1v-.6l.2-.6.1-.2 11.5-31.5-5.3-.1-4.8 20-.3 1.1-.6 2.5h-7.7l-.6-2.5-.3-1.1-4.9-19.9z"/><path fill="none" d="M82.9 155.2l1.1 39.5h.9v-26.2H98l-1.9-1.5 1.4-1.1H84.8v-24.3h16.1V163l6-4.7v-12.7l-7.6-6.8H78.4l-.1 5.6c1.1 2.5 1.7 5 2 7.4l2.6-.1v3.5zm41.9 32.6l7.6 6.8h14l7.5-7v-42.1l-7.9-6.9h-13.6l-7.6 6.8v42.4zm6.1-.7v-45.4H147v50.1h-16.1v-4.7z"/><path fill="none" d="M137.6 148.3h2.8v36.9h-2.8zm-36.5 23.4v22.8h6v-18.9l-6-4.7z"/><path fill="#EC008C" d="M294.5 170.7l.1-.1h-.1v.1zm-181.9-28.4zm.7 18.3v-.1h-.2zm46.7-17h-.1zm-10.7 56.7zm55.7-57.8l.1-.1h-.1zm-10.3 57.8zm-17.2.3l-.1.3h.2v-.3zm94.3-66.6l.3-.2v-.1l-.3-1.1h-.4l.3.9zm11.7 1.4l-.1-.2h-.2v.1z"/><path d="M71.9 135.7v-.3l-.2-.2c-1.3-1.2-2.6-2.1-4-2.9l.2.3c1.4.9 2.7 1.8 4 3.1zM2.5 159.1c0 1.1.3 2.8 1.6 4.3.2.3.5.5.8.7-.2-.1-.3-.3-.5-.5-1.3-1.5-1.6-3.2-1.6-4.3 0-.4-.3-.9-.7-1 .3.2.4.5.4.8zm5.8 12.5c-.9 0-2.3-.4-3.6-1.2 1.4.9 2.9 1.4 3.9 1.4 1.4 0 2.5-.2 3.6-.5l.1-.3c-1.1.4-2.4.7-4 .6zm72-15.4c.1-1.3.1-2.8-.1-4.3-.3-2.4-.9-4.9-2-7.4-.4-1-.9-2-1.4-2.9-.7-1.2-1.4-2.2-2.1-3.2v.4c.6.9 1.3 1.8 1.8 2.8 2.8 5 3.8 10.4 3.4 14.6-.1 1.3-.3 2.4-.5 3.5v1.2c.5-1.4.7-3 .9-4.7zm-24.2-10c1.7-.6 4.6-.8 7.4.2-2.9-1.1-6-.9-7.7-.3-6.1 2.1-7 7.8-7 8 0 .2-.1 1.1-.1 1.1.1-.1.2-.1.3-.2 0-.3.1-.7.1-.8.1-.3 1-5.9 7-8zm3.1 17.7c-.2-.4-.5-.5-.8-.6.2.1.3.2.5.5.5 1.6 1.7 2.6 3.2 3-1.4-.5-2.4-1.5-2.9-2.9zm-28.8 22.5c1.3-.9 2-2.8 2.1-3.1l2.5-1.1v-.2l-2.8 1.2c-.1.3-.8 2.2-2.1 3.1-.7.5-2.3 1.4-4.8 1.5-2.6.1-4.2-.7-5.4-1.6 1.2 1 2.9 1.8 5.7 1.8 2.4-.1 4-1 4.8-1.6zm-10.8-22.3c-.1.2-.3.5-.5.8l-.3 1.2c.3-.5.6-1 .9-1.4-.1-.3-.1-.5-.1-.6zm51.2 6.8h.1v-.1c-.1.1-.3.1-.4.2-2.3 1-3.5 1.3-5 1.3 1.7 0 2.8-.3 5.3-1.4zm-43.4-37c2.9 2.7 5 7.5 5.1 15.2h.2c0-.2.1-.5.1-.7-.2-7.4-2.5-12-5.4-14.5zm31.4-4.9c.4.1.8.1 1.2.2-.4-.1-.8-.2-1.2-.2z"/><path d="M70.4 192.2c-1-1.4-2-2.8-2.8-3.8-1.5-1.9-3-4.7-4.4-6.9-1.4-2.2-6-9.4-6.9-10.7-.9-1.3-3.2-5.2-3.9-6.3-.7-1.1-1.2-2.5-1.4-3-.2-.4-.3-.8-.3-.8s.8.1 1.6.1c0 0 4.7.4 6.9-1.1s4.4-4 5.2-6.8c0-.1-.2-.2-.6-.3.2.1.3.2.3.2-.7 2.7-2.9 5.3-5.2 6.8-2.2 1.5-6.9 1.1-6.9 1.1-.8 0-1.6-.1-1.6-.1s.1.4.3.8c.2.5.7 1.9 1.4 3s3 5 3.9 6.3c.9 1.3 5.5 8.5 6.9 10.7 1.4 2.2 2.9 5 4.4 6.9 1.2 1.5 2.9 4 4.3 6v-.4c-.3-.5-.8-1.1-1.2-1.7zm218.1-16.9c.2.5.5.9.8 1.3 1 1.2 2.5 1.9 4.1 1.9 2.6 0 4.9-1.9 5.4-4.5.1-.4.1-.8.1-1.2 0-3.1-2.5-5.8-5.6-5.8-2.1 0-4 1.3-5 3.1-.4.8-.6 1.7-.6 2.6 0 .4 0 .8.1 1.2.1.4.2.8.4 1.2.2.1.3.2.3.2zm2.3 1.3c-.5-.4-.9-.9-1.2-1.4-.4-.6-.6-1.4-.6-2.1v-.3c0-1.1.4-2.2 1.1-3 .6-.7 1.3-1.2 2.2-1.4.4-.1.8-.2 1.3-.2s.9.1 1.3.2c.8.2 1.5.7 2 1.3v.1c.2.2.3.4.4.6.3.4.5.9.6 1.5.1.3.1.7.1 1v.5c-.1 1.1-.6 2-1.3 2.8-.8.9-2 1.4-3.2 1.5-1.1-.2-2-.5-2.7-1.1z"/><path d="M294.8 175.9h1.4l-.5-.9-1-1.8c.6-.1 1-.3 1.3-.7.1-.1.2-.3.2-.5v-.6c0-.3-.1-.7-.2-1v-.2c-.1-.2-.2-.3-.4-.5-.1-.1-.2-.1-.3-.1-.3-.1-.6-.2-.9-.2h-3.3v6.3h1.2v-2.6h1.2l1 1.9.1.1.2.8zm-1-5.4h.8c.2 0 .3.1.4.2.1.1.2.2.2.4v.1c0 .6-.2.8-.7.9h-.4l-1.8.1v-1.8h1.5zM76.4 197.8h4.2l-.1-3.1-1.1-33.8v-1.2c-.5 2.4-1.2 4.4-2.2 6-.5.7-1.1 1.4-1.8 2l1 30.1zm-49-63.9l6.2-23 8.6 13.6 1.6 2.6 2.1-2.2 6.5-7 7.5 11.2c.7.1 1.4.3 2 .5 1.8.7 3.9 1.6 6 2.9l-.2-.3-13.1-19.5-1.7-2.5-2 2.2-6.5 6.9-10-15.7-2.9-4.5-1.4 5.3-7.2 27.1c1.5.3 3.1 1.1 4.5 2.4zm47.3 63.9h1.7l-1-30.1c-.2.2-.5.4-.7.6v29.5zm-2.8-27.6c-.4.2-.7.4-1 .5v.1l.8 23.1v.4c.1.1.2.2.2.3v-24.4zm2.2 30.5h2.4v-.1h-4.6V198H70s-38.8-.1-45-.1c-.3 0 1.8-1.1 3.4-2H10.7l8-29.9.3-1.2c-.7 1.1-1.6 2.4-2.4 3.2-1 1-2.4 2.2-4.4 2.9l-.1.3-7 26.3-.8 3h69.8z"/><path d="M73.3 132.3h-1.4v3.3c1 .9 1.9 2 2.8 3.2v-3.6h25.4l9.8 8.7v16l-7.3 5.7-1.4 1.1 1.4 1.1 7.5 6v24H97.4v-26h-9.5v26.1H74.8v-29.5c-.9.7-1.9 1.4-2.8 1.9v24.5c1 1.5 1.8 2.7 1.7 2.9-.1.2-.9.3-1.7.4v2.5h18.7v-26.1h3.8v26.1h18.4v-28.2l-.5-.4-6.5-5.2 6.5-5.1.6-.4v-18.5l-.5-.5-10.7-9.5-.4-.4H73.3z"/><path d="M89.3 162.2h8.1v-17.5h-9.5v17.5h1.4zm5.3-14.6v11.8h-3.8v-11.8h3.8zm23.9 43l10.5 9.5.4.4h19l.4-.4 10.3-9.5.5-.4v-47.7l-.6-.3-10.9-9.5-.4-.4h-18.3l-.2.2-.3.3-10.4 9.4-.1.1-.5.4v47.6l.6.3zm2.4-1.5V144l9.6-8.6h16.1l9.9 8.7v45.1l-9.4 8.6h-16.7l-9.5-8.7z"/><path d="M135.4 188.3h8.1v-43.5H134v43.5h1.4zm5.3-40.7v37.9h-3.8v-37.9h3.8zm46.2 37.9h-4v-37.9h4v12.7h18.4v-17.6l-.3-.3-.1-.1-.2-.2-10.5-9.5-.4-.4h-18.6l-.1.1-.2.2-.1.1-10.4 9.5-.2.1-.2.2-.1.1v47.7l.5.4 11.4 9.5.4.3h17.6l.4-.4 10.5-9.5.5-.4v-20.4h-18.3v15.8zm15.2-41.6v13.6h-12.5v-12.7h-9.7v43.5h9.7v-15.6h12.7V189l-9.6 8.6h-15.4l-10.6-8.8v-45.1l9.5-8.6h16.3l9.6 8.8zm25.8 10.5v-22h-18.8v68.2h18.8v-22.7l9.1 21.8.4.9h20.5l-.9-2-15.7-34.3 12.4-27.3.1-.3-.9-2.4-.7-1.9h-16.1l-.4.9-.1.2v.1l-7.7 20.8zm10.3-19.1h13.2l-12.9 28.5-.3.6.3.6 15 32.9h-14.1L228 170.7l-.4-.9h-2.5v27.9H212v-62.6h13.1V163l1.4.2h1.2l.4-.9 10.1-27z"/><path d="M255.8 132.4h-3.5l.7 1.9.9 2.4 12.8 35.3v28.6h18.9V172l13.8-37.7.7-1.9h-19.2l-.3 1.1v.1l-4.4 18.2-4.3-17.8-.1-.4-.2-.9-.1-.2h-15.7zm.7 2.8h12.7l5.5 22.5.3 1.1h2.4l.3-1.1 5.5-22.5H296l-13.2 36.1-.1.2-.1.3v26h-13.1v-26.3l-.1-.2-12.9-36.1zM12.3 171c2.1-.7 3.4-2 4.4-2.9.8-.8 1.7-2.1 2.4-3.2.2-.3.3-.6.5-.8.3-.6.6-1 .7-1.2 0 0 .1.2.3.5.1.2.2.4.3.7.1.3.3 1 .3 1.6 0 .4 0 .9-.1 1.3v.2c-.3 1.1-2.5 8.7-2.9 9.6-.4.8-1 2.2-1.2 2.7-.1.5 0 3.3 1.2 5 .5.6 1.1 1.3 1.8 1.9 1.2.9 2.9 1.6 5.4 1.6 2.4-.1 4-1 4.8-1.5 1.3-.9 2-2.8 2.1-3.1l2.8-1.2v.2c0 .7-.1 2.9-.3 3.9-.2 1.2-.6 3.2-1.5 5-.7 1.4-.2 1.2-.9 1.8-.7.6-1.9 1.8-2.1 2-.1.1-.9.5-1.8 1-1.6.9-3.7 2-3.4 2 6.2 0 45 .1 45 .1H72c.8 0 1.6-.1 1.7-.4 0-.2-.7-1.4-1.7-2.9-.1-.1-.2-.2-.2-.3-1.4-2-3.2-4.5-4.3-6-1.5-1.9-3-4.7-4.4-6.9-1.4-2.2-6-9.4-6.9-10.7-.9-1.3-3.2-5.2-3.9-6.3-.7-1.1-1.2-2.5-1.4-3-.2-.4-.3-.8-.3-.8s.8.1 1.6.1c0 0 4.7.4 6.9-1.1s4.4-4 5.2-6.8c0-.1-.1-.1-.3-.2-1.1-.4-4.9-1-8-.4-2.4.5-5.1 1.7-6.6 2.7-.1.1-.2.2-.3.2 0 0 .1-.9.1-1.1 0-.2.9-5.9 7-8 1.8-.6 4.9-.8 7.7.3 2.7 1 5.3 3.2 6.1 7.3.9 4.1-.4 7.1-.8 8.3-1.6 4.1-4.5 5.4-6.8 4.8-1.4-.4-2.6-1.4-3.2-3-.1-.2-.3-.4-.5-.5-.3-.2-.7-.1-1 0-.5.2-.7.8-.6 1.3.1.8.5 3.4 1.9 5.2.8 1 1.9 2.2 4.7 2.4.8.1 1.5.1 2.1.1 1.5 0 2.7-.3 5-1.3.1-.1.3-.1.4-.2.3-.2.7-.3 1-.5.9-.5 1.9-1.2 2.8-1.9.2-.2.5-.4.7-.6.7-.7 1.4-1.3 1.8-2 1-1.5 1.7-3.5 2.2-6 .2-1.1.4-2.3.5-3.5.4-4.1-.6-9.6-3.4-14.6-.6-1-1.2-1.9-1.8-2.8-.9-1.2-1.8-2.2-2.8-3.2-1.3-1.2-2.6-2.2-3.9-3-2.1-1.3-4.2-2.2-6-2.9-.6-.2-1.3-.4-2-.5-.4-.1-.8-.1-1.2-.2-.7-.1-1.3-.1-2.1-.2-4.6-.1-10.2 1.1-14.9 4.6-4.1 3.1-7.6 7.9-9.1 15 0 .2-.1.5-.1.7 0 .2-.1.5-.1.7v-.7c0-7.7-2.2-12.5-5.1-15.2-1.4-1.3-3-2.1-4.6-2.4-.7-.2-1.4-.2-2.1-.2-5.3 0-9.8.3-10.7 14.7-.1 1.8 1.1 7.1 1.4 8.4.9 4.2 1.4 8.1-1.8 9.8-1.5.7-3.4.8-4.7 0-.3-.2-.6-.4-.8-.7-1.3-1.5-1.6-3.2-1.6-4.3 0-.3-.1-.6-.4-.8-.4-.6-.6-.7-.9-.7-.6 0-1 .3-1.1 1-1.5 5.8 1.4 9.6 4.3 11.4 1.3.8 2.6 1.2 3.6 1.2 1.6.1 2.9-.2 4-.6zm5.7-38.9c.4-.2 1.1-.2 1.6-.3.5-.1 1.6.1 1.9.2.3.1 1.9.4 2.9 1.1-2-.3-3.3.1-3.8.2-.7.3-1.5.9-2.2.9-.6 0-1-.5-1-1 0-.3.1-.8.6-1.1zm14 17.4s-1.6-.9-3.1-.7c-1.5.1-1.6.4-2.2.5-2.1.6-2.3-1.1-2.3-1.6.1-2.2 5.2-2.1 6.3-1 1 1 1.3 1.4 1.3 2.8zm14-7.7c-.3 1-1.1 1.6-2.8.8-1.6-.7-6.1-.4-8.3.8.7-3.4 5.7-4.1 9.2-3.6 1.6.3 2.2 1.2 1.9 2zm-24.3 17.8c-.2-1 2.7-3.1 2.6-5.5-.1-.9.4-1.5.7-1.6 3.4-.9 6.7.6 6.9.6.3.1 4.8-1.9 8.6.4 1 .6.4 1.1.1 1.8-1 2.2-1.1 2.8-.6 5.2.1.7.2 1.6-.2 1.6-7.5.7-12.1 5.8-14.7 15.6-.1.2-3.2 2.2-3.5 2.2-.2-.1-1.3-2.1-1.3-2.2 3.4-9.4 4.2-13.8 2.1-17-.4-.6-.7-.8-.7-1.1zm21-11.5c-.1.5-.4 2.1-2.4 1.3-3.1-1.2-5.2-.5-7.2.2.2-3.7 6-3.8 7.6-3.3 1.6.4 2.1 1 2 1.8zm4.9-10.9c-1.3-.9-4.7-1.3-9 .3 1.4-2.9 8.2-3.6 10.8-2.8 1.6.5 1.8 1.3 1.6 2-.1.5-.7 2.1-3.4.5zm7.4-5.5c1.4.7 1.4 1.3 1.2 2-.1.3-1 1.5-3.4-.2-1.6-1.1-6.6-1.4-10 .2 1.7-2.1 9.5-3.4 12.2-2zm-23.6 11.6s-2-1.2-3.7-1.2c-1.6 0-2.2.7-2.9.6-1.2-.1-1.5-.7-1.5-1.4-.1-.7.4-1.5 2.2-1.7 1.5-.2 3.4 0 4.4.8 1.3 1.1 1.4 2 1.5 2.9zm-2.1-5.6c-1-.6-2-.9-3.4-.9-1.1 0-1.6.2-1.9.3-.7.2-1.3.8-2 .5-.5-.2-.9-.7-.9-1.3-.1-.7.5-1.4 2.1-1.6 1.7-.2 2.9.2 3.4.4 2 .8 2.4 2.1 2.7 2.6z"/></svg>