<svg version="1.0" xmlns="http://www.w3.org/2000/svg" width="2090.667" height="2090.667" viewBox="0 0 1568 1568"><path d="M768.7 447.6c-.1.1-4.7.5-10.1.8-10.9.7-30.3 3.1-38.1 4.6-2.7.6-6 1.2-7.3 1.5-8.7 1.6-28.7 7-39.2 10.5-43.6 14.7-79.4 35.1-118.5 68-1.6 1.4-9.7 9.2-18 17.5l-15 14.9-253.8.1c-158.5 0-253.7.3-253.7.9 0 1.5 63.2 127.6 64.2 128.2.5.4 85.1.6 187.9.6 102.8 0 186.9.2 186.9.5 0 1.6-2.4 9.3-2.9 9.4-.3.1-70.6.2-156.1.3-127.4.2-155.4.4-155.2 1.5.3 1.3 63 127.2 63.8 128 .2.3 54.4.5 120.3.5 66 .1 120.1.3 120.4.6.2.3.7 2.5 1.1 5l.7 4.5h-93.6c-51.4 0-93.5.3-93.5.8 0 .4 14.4 29.6 32.1 65l32.1 64.2 86.1-.1h86.1l8.1 11c4.4 6.1 9.2 12.4 10.5 14 12.8 15.1 16.7 19.5 25.9 28.6 46.4 46.1 102.2 77.1 165.1 91.5 5.8 1.3 12.1 2.7 14 3 1.9.3 4.6.8 6 1 1.4.3 4.3.7 6.5 1 2.2.2 5.1.7 6.5.9 14.4 2.7 75.1 2.8 85 .1.8-.2 4-.7 7-1 21-2.5 51.8-10.7 76.8-20.6 12.8-5.1 41.5-19 44.3-21.5.8-.8 1.9-1.4 2.3-1.4.9 0 19.7-12.2 28.1-18.3 29.5-21.4 59.7-52.4 80.3-82.2l4.2-6 86-.1c47.3 0 86.2-.3 86.6-.6 1.3-1.4 64.3-128.1 64-128.7-.2-.3-41.3-.5-91.3-.5-49.9.1-91.5 0-92.5-.3-.9-.2-1.5-.9-1.4-1.6.2-.7.6-2.8 1-4.8l.8-3.5h119.5c78.3.1 120-.2 120.9-.9 1.9-1.5 64.7-127.6 63.9-128.3-.4-.4-70.4-.7-155.7-.7h-155l-1.8-4.8c-1-2.6-1.5-4.9-1.2-5.1.4-.2 84.8-.4 187.5-.4 102.8 0 187-.2 187.2-.4.5-.5 64.5-128.5 64.5-128.9 0-.3-114.6-.4-254.7-.4l-254.8.1-13-13.1c-15.9-16.1-23.6-23-37.8-33.9-43.2-33.2-90.2-54.4-144.2-65.1-12.7-2.5-23.6-3.8-42-5.1-8.7-.6-33.4-1.2-33.8-.8zm39.8 26.8c3.3.4 8 .9 10.5 1.2 26.2 2.8 62.5 12.6 87 23.4 48.7 21.4 86.9 50.4 121.9 92.5 14 16.9 28.7 40.3 40.1 64 8.2 17.1 18.6 45.9 20.7 57.4.2 1.4.6 2.8.8 3.1.2.4.7 2.2 1 4.1.3 1.9 1 5 1.5 6.9.8 3.2 3.5 19.7 4.5 28 2.3 18.7 2.4 57.3.1 71-.3 1.4-.7 4.7-1.1 7.5-.3 2.7-1 7.5-1.5 10.5s-1.2 7.3-1.6 9.5c-.3 2.2-1 4.8-1.5 5.7-.5 1-.8 1.8-.5 1.8.6 0-3.8 16.6-7.5 28-6.2 19-18.3 46.2-26.7 60-1.2 1.9-2.9 4.8-3.8 6.5-4.5 8.1-23.9 35-28.9 40.1-1.1 1.1-3.2 3.5-4.7 5.3-9.4 11.6-34.7 34.9-48.2 44.6-1.5 1.1-4.7 3.4-7 5.1-20.9 15.5-56 33-85.6 42.8-20.8 6.9-47 12.1-71.5 14.2-14.7 1.3-53.1.7-62.1-1-1.1-.2-4.4-.7-7.4-1-21.4-2.7-48.5-9.9-72.5-19.3-86-33.8-154-104.9-184.1-192.4-3.1-9.2-9.7-32.8-10.8-38.9-.2-1.4-.9-5.2-1.5-8.5-5.1-28.2-6.1-63.2-2.6-94 2.8-24.6 10.4-54.2 20.5-79.4 3.6-9.1 14.3-31.8 17-36.1.5-.8 3.9-6.5 7.6-12.5 39.2-64.1 102.2-113.3 174.4-136.3 10.2-3.3 27.2-7.7 33-8.7 1.9-.3 5.8-1 8.5-1.5 8.2-1.6 18.7-2.9 28.7-3.6 5.1-.4 9.4-.8 9.6-.9.6-.5 38.1.3 43.7.9zM499.7 599.8c-5.1 7.5-11.2 17.5-13.6 22.2l-4.4 8.5H72.5l-11.3-22.3L50 586h458.9l-9.2 13.8zm1014.7-11.7c.2.2-4.4 10.1-10.3 21.9l-10.8 21.5-205.1.3-205.1.2-3.7-6.7c-6.1-10.9-17.5-29.5-20.6-33.4-1.5-2-2.8-3.8-2.8-4 0-.6 457.9-.3 458.4.2zM445.5 728.2c.3.3.1 4.5-.5 9.4s-1.3 10.9-1.6 13.4c-.7 5.9-1.1 9.3-1.9 15.7l-.7 5.3h-6.6c-34.5.2-232.5.1-232.6-.2-1.5-2.4-21.3-43.4-21.1-43.8.4-.7 264.4-.5 265 .2zm937.5 0c0 .4-4.8 10.5-10.6 22.3l-10.7 21.5h-4.6c-60.3.4-233.6-.1-234.1-.7-.4-.4-1-5.1-1.4-10.3-.3-5.2-.8-10.6-1.1-12-.3-1.4-.8-4.8-1.1-7.5-.3-2.8-1-6.9-1.4-9.2-.7-4-.6-4.2 1.9-4.5 5.8-.7 263.1-.2 263.1.4zM450.8 871.3c1.5 6.7 8.5 29.2 10.6 34.1.9 2.1 1.4 4.1 1.2 4.5-.2.3-32.1.6-70.7.6h-70.4l-10.2-20.2c-5.6-11.2-10.4-21.2-10.8-22.3-.6-2-.5-2 74.2-2h74.8l1.3 5.3zm812.4-3.4c.5.1-4.2 10.1-10.3 22.3l-11.1 22.3-70-.2c-38.5-.1-70.2-.4-70.5-.7-.3-.2.6-3.5 2.1-7.3 1.4-3.7 3.7-10.9 5.1-15.8 2.7-9.1 3-10.4 4.1-16.3.4-1.9 1.4-3.6 2.5-4 1.3-.5 142-.7 148.1-.3z"/><path d="M756.8 487.5c-.2.2-3.2.6-6.8 1-21.5 2.1-47.7 8-69 15.3-11.1 3.8-14.9 5.4-25.2 10.1-2.6 1.1-4.9 2.1-5.1 2.1-1.4 0-29.3 16-37.1 21.2-44.8 30.1-80 69.8-103.1 116.7-13.9 28.1-24.6 61.2-27.9 86.1-.3 2.5-.8 5.6-1 7-.5 3.2-1.6 12.7-2.2 19.4-1.5 15.5-.3 50.5 2.1 65.6.4 2.5.9 5.4 1.1 6.5.6 4.2 1.6 9.8 2.1 11.9.2 1.1.9 3.9 1.3 6.1 13.1 60.1 48.4 119.2 96 160.5 4.1 3.6 7.9 6.9 8.6 7.5.6.5 5.6 4.4 11.2 8.5 39.5 29.1 90.3 49.7 137.1 55.6 2.5.3 5.7.7 7.1 1 12.7 2.2 63.7 2.1 70.3-.1.7-.2 3.2-.6 5.7-.9 15.9-1.6 51.4-10.3 63.5-15.5 1.1-.5 6.3-2.6 11.5-4.6 5.2-2.1 14.2-6.3 20-9.3 5.8-3 11.9-6.2 13.5-7 1.7-.8 8.9-5.3 16-10 76.9-50.4 126-131.5 135.3-223.7.4-3.9.7-18.3.7-32-.1-21-.4-27.5-2.4-40.5-7.6-50.7-26.5-96.7-55.9-136.3-34.6-46.6-79-80.6-133.7-102.5-11.7-4.6-40-12.9-51-14.8-5.3-.9-16.4-2.6-20-3-2.2-.3-5.6-.8-7.5-1.1-3.8-.6-54.6-1.3-55.2-.8zm41.3 59.9c5.2.4 10.4.8 11.5 1 1 .2 4.2.7 6.9 1 16.5 2.2 39 8.5 56.5 15.8 51.3 21.2 94 59.8 121.2 109.3 11.1 20.3 21.7 50.2 25.3 71.2 1.2 7.4 2.2 14.4 3.1 22.3.6 5.7.7 36.2 0 41.5-.2 1.6-.7 6.1-1 10-.4 3.8-.9 7.2-1.1 7.5-.1.3-.6 2.7-1 5.5-1 7.7-6.9 29.9-11 41-4.1 11.5-15.5 34.8-21.7 44.7-19.2 30.4-49.5 60.3-79.1 78.2-24.7 14.9-55 26.5-81.2 31.1-1.6.2-3.9.7-5.1.9-1.9.4-5.4.9-15.9 2.2-1.6.2-10.7.6-20.2.8-24.7.4-47.8-2.4-68.7-8.5-3.8-1.2-7.6-2.2-8.5-2.4-.9-.2-4.7-1.6-8.6-3-3.8-1.5-8.3-3.2-10-3.8-6.2-2.2-28.3-13.7-36.8-19-43.3-27.4-76.8-67.2-96.3-114.3-4.9-12-9.8-27.1-11-34.4-.3-1.4-.9-3.9-1.4-5.5-7-23.4-7.2-69.2-.5-100.5.9-4.1 1.8-8.4 2-9.4.3-1.1 1.9-6.5 3.6-12 19.6-63.4 64.3-116.2 123.7-146.1 28.3-14.2 60.3-23.1 90.7-25.1 5-.4 9.1-.7 9.2-.8.3-.3 16.1.2 25.4.8z"/><path d="M777.6 573.7c-3.7 12-15.5 49.2-16.5 52.3-2.2 6.7-7.6 23.4-13.2 41-3.4 10.7-7.8 24.7-9.9 31-2 6.3-4.3 13.6-5.1 16.2l-1.3 4.8-82.8.2-82.8.3 24.8 18c13.6 9.9 25.2 18.3 25.7 18.8 2.6 2 12.8 9.4 45.5 33.2 19.5 14.2 35.9 26.1 36.3 26.5.4.4.3 1.8-.2 3.1s-6.9 20.6-14.1 42.9c-7.2 22.3-18.3 56.2-24.6 75.4-6.3 19.2-11.3 35.1-11.1 35.2.3.3 8.3-5.3 16.7-11.6 1.4-1 6.4-4.7 11.2-8.2 20.6-15 84.6-61.8 91.6-67 4.3-3.2 9.1-6.5 10.8-7.4 3.1-1.6 3.3-1.6 7 1.4 2.2 1.6 20.8 15.3 41.4 30.3 20.6 15 41.6 30.2 46.5 33.9 25.5 18.8 39.6 29 39.9 29 .5 0 .3-.8-4.2-15-1.7-5.2-8.1-25.5-14.2-45s-14.1-44.7-17.7-56c-3.6-11.3-7.9-24.9-9.6-30.3l-3.1-9.9 2.4-1.9c1.4-1.1 30.9-22.7 65.5-48 34.7-25.3 63.4-46.4 64-47 .6-.6-14.6-.9-42.5-.9H832.1L807 642.7c-13.9-41.9-25.5-76.5-25.9-77-.4-.4-1.9 3.2-3.5 8z"/></svg>